PathFileType	4	(X/Y/Z)	Walk1_0-155.trc
DataRate	CameraRate	NumFrames	NumMarkers	Units	OrigDataRate	OrigDataStartFrame	OrigNumFrames
30	30	6	22	m	30	96	155
Frame#	Time	Hip			RHip			RKnee			RAnkle			RBigToe			RSmallToe			RHeel			LHip			LKnee			LAnkle			LBigToe			LSmallToe			LHeel			Neck			Head			Nose			RShoulder			RElbow			RWrist			LShoulder			LElbow			LWrist		
		X1	Y1	Z1	X2	Y2	Z2	X3	Y3	Z3	X4	Y4	Z4	X5	Y5	Z5	X6	Y6	Z6	X7	Y7	Z7	X8	Y8	Z8	X9	Y9	Z9	X10	Y10	Z10	X11	Y11	Z11	X12	Y12	Z12	X13	Y13	Z13	X14	Y14	Z14	X15	Y15	Z15	X16	Y16	Z16	X17	Y17	Z17	X18	Y18	Z18	X19	Y19	Z19	X20	Y20	Z20	X21	Y21	Z21	X22	Y22	Z22
97	3.2333333333333334	0.14146393081308664	0.9049794559642271	0.34476636605773164	0.1439567932769401	0.8811962750518225	0.4617478961209144	0.31132405954183007	0.560989693786294	0.46940345031869835	0.006845712046491984	0.2972033467545042	0.43174224084785606	0.07346671126733262	0.10273738297017747	0.44351022027531833	0.03262626321152248	0.12668101953393487	0.4837485642685517	-0.07460149294900792	0.2681536129787502	0.4190682953670443	0.1378505297793487	0.8803733744701068	0.23387478437368403	0.15175941637036922	0.511064779256029	0.2564894212746867	0.12172915988008677	0.11127559396028706	0.2780207221553502	0.32585191024141785	0.04323683157569798	0.2913088092107336	0.2888382362581841	0.03737712784602599	0.2308546545587334	0.07307253885177484	0.03948192888455955	0.28217799727441456	0.08497511765494993	1.584340470249627	0.341578572157362	0.1483164448971473	1.8319524300807275	0.35596444999159293	0.24418793204554048	1.6889430283571527	0.34877947849410534	0.027706671323835114	1.4654267226713709	0.5143794874010473	0.07182991946809254	1.1600101315720888	0.5666620198867445	0.1110225975146709	0.908352900551281	0.6042582263526163	0.0858303894197665	1.4668422805703463	0.16446380292053084	0.15350282889513683	1.1635766488113437	0.08838798908569687	0.2567589144709484	0.9188172823129481	0.08098798215180229
98	3.2666666666666666	0.17553609470220963	0.9096878656714713	0.3461030313699001	0.18213149542743423	0.8845938155626109	0.4647248510687162	0.37292263684434634	0.5699990044524436	0.46703906722588706	0.11642550454413987	0.2710369144641946	0.43592747384499364	0.22815289095943064	0.10395342586697164	0.4569582631558439	0.18229499462728635	0.11886411832384028	0.49628609751733194	0.0442662727608526	0.22947967342542905	0.4270082740004113	0.16814547798831092	0.8831809975211291	0.23382932903095321	0.16063055372658	0.5095209631998414	0.2573690246265508	0.12301971083274983	0.11117344258138509	0.27910047126104254	0.324358716646168	0.04140361795932444	0.29014942894558793	0.2849388392871134	0.03645506905462631	0.22653203236550729	0.0750496716032413	0.04260316250120566	0.2838180868168596	0.12672080950368517	1.5897418253461466	0.3420651000804251	0.19702672220090822	1.8377337237487763	0.36374516570116733	0.28984045203512326	1.6910546047981918	0.3474325167512032	0.06513286807648927	1.4701365593173674	0.5160796731987072	0.09072409816434941	1.1643806382174176	0.5692226526909926	0.11679960110338718	0.9121919914708381	0.6089426652922476	0.12822920707253313	1.4712116905067718	0.1640207049158164	0.20561352428404472	1.172385846516601	0.08586078697789656	0.33483195660561693	0.9340756121529185	0.08828086289742819
99	3.3	0.20996380483392454	0.9118519097790155	0.3478292094982519	0.2207278147188125	0.8858497096865654	0.46757868323878987	0.42350481268379286	0.5700585758781389	0.4646488782905432	0.2303603693766559	0.23866904343471515	0.44049755392000867	0.3838494642034527	0.10244729152120441	0.4650575780739115	0.3356524204095198	0.10778735706126921	0.5042881996431384	0.1691667554362473	0.18554205709903587	0.4347579970868041	0.19868204772651157	0.8843362827873027	0.23444339459936114	0.1724283022041313	0.5065241868222423	0.2597088451922465	0.12457377830938043	0.11057865796517706	0.2806442342695429	0.32380012164015853	0.03904976946734042	0.2894266173043625	0.2811770912043605	0.0350455133277396	0.22280112388395876	0.07663837608997712	0.044958976506523134	0.2865418017738789	0.1675219442847951	1.5931824256529348	0.34195436339766094	0.24456631726592262	1.8416108689083117	0.37150222588602533	0.33566597954166183	1.689780173645958	0.34544893473641747	0.10358400783201495	1.472362433582251	0.5180837732585443	0.10950447301209675	1.167243794721187	0.5723462326961058	0.12670164449498544	0.9151332906375248	0.6141591013720765	0.17141843883616126	1.4735794613757884	0.1641953327712957	0.25417711656165837	1.1793190058624603	0.08393997408847696	0.40643362681057094	0.949845150232013	0.09441807315880701
100	3.333333333333333	0.24571735020355379	0.9114920714708762	0.3499794124768557	0.2603680443463423	0.8845862541252066	0.46993637341969097	0.4656414047763066	0.5608246409844337	0.46330714695776654	0.3461475388446147	0.20568933235617354	0.4456598120254949	0.532708655005838	0.10181163503124699	0.46950371816301134	0.48518822363178443	0.09812339920094713	0.509299112803478	0.2966039246962204	0.1433769906252217	0.4425140894134006	0.230796765871868	0.8835579723816833	0.23624239939618333	0.18762861206526207	0.5024038230032961	0.26361654797138173	0.12581344914481787	0.11016810886817875	0.2822302262027317	0.3243713508677251	0.03699738762396911	0.28873895808574895	0.2778336098514743	0.03360042266497537	0.22010856786574748	0.07721127336881807	0.04653918764659371	0.2899701050045433	0.20745784553716096	1.5944561755166655	0.3413783479405799	0.29044958838162716	1.8432596309590168	0.37870931459010543	0.3815398759539563	1.6858271375511933	0.3437763467612973	0.14341500289335202	1.471809563650515	0.5202256416438364	0.1302896339811659	1.1685253081081728	0.5752558954942386	0.14069705047793543	0.9163352642496466	0.6194848443571701	0.21539073668489192	1.4739813872872756	0.16509650311605262	0.30018822506308185	1.1839471162829034	0.08305934186109541	0.4716753484390118	0.965576884085175	0.09934589776923802
101	3.3666666666666667	0.28350866323812857	0.9088634226903806	0.3528039043262127	0.30123765733364327	0.880870604443934	0.47194291393959564	0.5030506373135664	0.5447318185921404	0.4637756677408884	0.4594830921954555	0.1768711522091516	0.4510307066676339	0.6672854243682091	0.1051700890300352	0.4726641357351418	0.6225084164525779	0.09375741406643787	0.5135388463465468	0.42085372600577997	0.10831623185169136	0.44988564773407264	0.2654281971620796	0.8806582958108079	0.2395710170383179	0.20642074664857993	0.497941552539681	0.26883839956820677	0.12638971153016176	0.11045131620284736	0.2836054749122322	0.32593746775066884	0.03547936786082573	0.28748291561890255	0.2756644558815306	0.03242719347693821	0.21913234042836854	0.0761982202199361	0.047752726305913804	0.2932770163834849	0.24717836935649184	1.5933195137867942	0.34096605522735046	0.3338031698610066	1.8423157793527605	0.38415949278614203	0.4270194208620487	1.680161338539769	0.3435564808342748	0.1844984143906387	1.4686773184652124	0.5222648068179883	0.1550173152096778	1.1680474824386295	0.5776365147582903	0.15886770149139487	0.9154328817510766	0.624558336156888	0.2599861648387119	1.4724061905355612	0.16658364761739897	0.34468806970132193	1.1859422292192712	0.08364255962928409	0.5314039268057388	0.9795205333980022	0.10353093959341539
102	3.4	0.3239493831358281	0.9043524615248236	0.35664333333299447	0.3435270521149002	0.8753165818131307	0.4742812844654912	0.539786717423383	0.5266386421359491	0.46580137479999734	0.5646150859646912	0.1543347374122934	0.4555395326786246	0.7818709709576632	0.11265182892847538	0.47540727826211376	0.7403998413082632	0.0952577055076882	0.5177792189910841	0.5344439366061556	0.08231972643824402	0.45565246126536385	0.30306775877900216	0.8758325496898918	0.24439425038993662	0.22908113543380304	0.49407867743217726	0.274619000228462	0.12660297209971175	0.11174178638183206	0.2847533224385365	0.3282519940742319	0.03389987720283629	0.2855290812214788	0.27530723312477606	0.03131307047456155	0.220608713574897	0.0734664251418928	0.04934038207216347	0.2956888886003223	0.2875241549724923	1.589609430918177	0.34155212580233607	0.3746675272336661	1.8386762796575171	0.3874955738096187	0.47176759031470444	1.6737695062496474	0.34520194227596795	0.22659072965831148	1.4634623221347796	0.5242814343216435	0.18481212829768942	1.1655542139119286	0.5797307853081173	0.18148096594311372	0.9123492954988776	0.6292294169087781	0.3049529487921438	1.4687881368882478	0.16844433574324097	0.3886891720374903	1.185148527242324	0.08587028126339506	0.5864387679043908	0.9894923365920182	0.10744217317185745
